REM DIRINDEX 1\2,1\3,1\4,1\5
REM DIRNAME cjc004,folder01,folder02,folder03,folder04
TITLE ""
FILE "1Q_t_0220-0229.mp3" MP3
  TRACK 01 AUDIO
    TITLE "3:cjc004_1560"
    INDEX 01 00:00:00
  TRACK 02 AUDIO
    TITLE "0:"
    INDEX 01 00:00:74
  TRACK 03 AUDIO
    TITLE "4:cjc004_1561"
    INDEX 01 00:01:22
  TRACK 04 AUDIO
    TITLE "0:"
    INDEX 01 00:02:45
  TRACK 05 AUDIO
    TITLE "5:cjc004_1562"
    INDEX 01 00:02:73
  TRACK 06 AUDIO
    TITLE "0:"
    INDEX 01 00:07:64
  TRACK 07 AUDIO
    TITLE "3:cjc004_1563"
    INDEX 01 00:08:52
  TRACK 08 AUDIO
    TITLE "0:"
    INDEX 01 00:09:67
  TRACK 09 AUDIO
    TITLE "4:cjc004_1564"
    INDEX 01 00:10:23
  TRACK 10 AUDIO
    TITLE "0:"
    INDEX 01 00:11:42
  TRACK 11 AUDIO
    TITLE "5:cjc004_1565"
    INDEX 01 00:11:64
  TRACK 12 AUDIO
    TITLE "0:"
    INDEX 01 00:16:02
  TRACK 13 AUDIO
    TITLE "3:cjc004_1566"
    INDEX 01 00:16:57
  TRACK 14 AUDIO
    TITLE "0:"
    INDEX 01 00:17:69
  TRACK 15 AUDIO
    TITLE "4:cjc004_1567"
    INDEX 01 00:18:25
  TRACK 16 AUDIO
    TITLE "0:"
    INDEX 01 00:19:63
  TRACK 17 AUDIO
    TITLE "5:cjc004_1568"
    INDEX 01 00:20:14
  TRACK 18 AUDIO
    TITLE "0:"
    INDEX 01 00:25:31
  TRACK 19 AUDIO
    TITLE "3:cjc004_1569"
    INDEX 01 00:26:07
  TRACK 20 AUDIO
    TITLE "0:"
    INDEX 01 00:27:28
  TRACK 21 AUDIO
    TITLE "4:cjc004_1570"
    INDEX 01 00:27:49
  TRACK 22 AUDIO
    TITLE "0:"
    INDEX 01 00:29:23
  TRACK 23 AUDIO
    TITLE "5:cjc004_1571"
    INDEX 01 00:29:50
  TRACK 24 AUDIO
    TITLE "0:"
    INDEX 01 00:33:73
  TRACK 25 AUDIO
    TITLE "3:cjc004_1572"
    INDEX 01 00:34:53
  TRACK 26 AUDIO
    TITLE "0:"
    INDEX 01 00:35:70
  TRACK 27 AUDIO
    TITLE "4:cjc004_1573"
    INDEX 01 00:36:36
  TRACK 28 AUDIO
    TITLE "0:"
    INDEX 01 00:37:52
  TRACK 29 AUDIO
    TITLE "5:cjc004_1574"
    INDEX 01 00:38:04
  TRACK 30 AUDIO
    TITLE "0:"
    INDEX 01 00:42:70
  TRACK 31 AUDIO
    TITLE "3:cjc004_1575"
    INDEX 01 00:43:62
  TRACK 32 AUDIO
    TITLE "0:"
    INDEX 01 00:44:73
  TRACK 33 AUDIO
    TITLE "4:cjc004_1576"
    INDEX 01 00:45:32
  TRACK 34 AUDIO
    TITLE "0:"
    INDEX 01 00:46:74
  TRACK 35 AUDIO
    TITLE "5:cjc004_1577"
    INDEX 01 00:47:23
  TRACK 36 AUDIO
    TITLE "0:"
    INDEX 01 00:51:63
  TRACK 37 AUDIO
    TITLE "3:cjc004_1578"
    INDEX 01 00:52:49
  TRACK 38 AUDIO
    TITLE "0:"
    INDEX 01 00:53:43
  TRACK 39 AUDIO
    TITLE "4:cjc004_1579"
    INDEX 01 00:54:01
  TRACK 40 AUDIO
    TITLE "0:"
    INDEX 01 00:55:26
  TRACK 41 AUDIO
    TITLE "5:cjc004_1580"
    INDEX 01 00:55:57
  TRACK 42 AUDIO
    TITLE "0:"
    INDEX 01 01:00:37
  TRACK 43 AUDIO
    TITLE "3:cjc004_1581"
    INDEX 01 01:01:21
  TRACK 44 AUDIO
    TITLE "0:"
    INDEX 01 01:02:46
  TRACK 45 AUDIO
    TITLE "4:cjc004_1582"
    INDEX 01 01:03:00
  TRACK 46 AUDIO
    TITLE "0:"
    INDEX 01 01:04:11
  TRACK 47 AUDIO
    TITLE "5:cjc004_1583"
    INDEX 01 01:04:39
  TRACK 48 AUDIO
    TITLE "0:"
    INDEX 01 01:09:44
  TRACK 49 AUDIO
    TITLE "3:cjc004_1584"
    INDEX 01 01:10:26
  TRACK 50 AUDIO
    TITLE "0:"
    INDEX 01 01:11:41
  TRACK 51 AUDIO
    TITLE "4:cjc004_1585"
    INDEX 01 01:11:64
  TRACK 52 AUDIO
    TITLE "0:"
    INDEX 01 01:12:58
  TRACK 53 AUDIO
    TITLE "5:cjc004_1586"
    INDEX 01 01:13:10
  TRACK 54 AUDIO
    TITLE "0:"
    INDEX 01 01:18:19
  TRACK 55 AUDIO
    TITLE "3:cjc004_1587"
    INDEX 01 01:19:03
  TRACK 56 AUDIO
    TITLE "0:"
    INDEX 01 01:20:10
  TRACK 57 AUDIO
    TITLE "4:cjc004_1588"
    INDEX 01 01:20:46
  TRACK 58 AUDIO
    TITLE "0:"
    INDEX 01 01:22:05
  TRACK 59 AUDIO
    TITLE "5:cjc004_1589"
    INDEX 01 01:22:33
  TRACK 60 AUDIO
    TITLE "0:"
    INDEX 01 01:26:52
